<?xml version="1.0" encoding="UTF-8"?>
<svg width="89px" height="89px" viewBox="0 0 89 89" version="1.1" xmlns="http://www.w3.org/2000/svg" xmlns:xlink="http://www.w3.org/1999/xlink" xmlns:sketch="http://www.bohemiancoding.com/sketch/ns">
    <!-- Generator: Sketch 3.3 (11970) - http://www.bohemiancoding.com/sketch -->
    <title>Fill 141 + Fill 142 + Fill 143</title>
    <desc>Created with Sketch.</desc>
    <defs></defs>
    <g id="Page-1" stroke="none" stroke-width="1" fill="none" fill-rule="evenodd" sketch:type="MSPage">
        <g id="Fill-141-+-Fill-142-+-Fill-143" sketch:type="MSLayerGroup">
            <path d="M21.261,11.195 C5.569,26.886 5.568,52.327 21.26,68.019 C36.952,83.711 62.394,83.711 78.085,68.019 C83.684,62.422 87.285,55.579 88.89,48.379 C88.029,58.392 83.773,68.168 76.111,75.83 C58.854,93.087 30.877,93.087 13.62,75.828 C-3.636,58.573 -3.636,30.596 13.62,13.341 C20.897,6.063 30.075,1.855 39.551,0.716 C32.85,2.452 26.512,5.944 21.261,11.195" id="Fill-141" fill="#3B3B3D" sketch:type="MSShapeGroup"></path>
            <path d="M56.863,4.776 C38.115,4.776 22.918,19.975 22.918,38.718 C22.918,57.47 38.115,72.663 56.863,72.663 C63.552,72.663 69.79,70.727 75.045,67.387 C68.553,72.856 60.17,76.152 51.017,76.152 C30.4,76.152 13.689,59.44 13.689,38.822 C13.689,18.209 30.4,1.493 51.017,1.493 C59.707,1.493 67.702,4.466 74.046,9.443 C69.005,6.479 63.133,4.776 56.863,4.776" id="Fill-142" fill="#278AA0" sketch:type="MSShapeGroup"></path>
            <path d="M81.002,22.407 C70.11,11.511 52.441,11.511 41.544,22.407 C30.646,33.304 30.646,50.969 41.544,61.865 C45.43,65.756 50.18,68.254 55.178,69.368 C48.226,68.771 41.441,65.816 36.117,60.498 C24.134,48.511 24.134,29.086 36.117,17.1 C48.101,5.115 67.527,5.117 79.515,17.1 C84.563,22.152 87.486,28.527 88.279,35.11 C87.071,30.457 84.647,26.053 81.002,22.407" id="Fill-143" fill="#EA8738" sketch:type="MSShapeGroup"></path>
        </g>
    </g>
</svg>